<svg id="Layer_1" data-name="Layer 1" xmlns="http://www.w3.org/2000/svg" viewBox="0 0 40 40"><defs><style>.cls-1{fill:#0278af;}</style></defs><title>car status</title><path class="cls-1" d="M27.75,2.71h0l-.06-.1A3.91,3.91,0,0,0,25.45,1,5.86,5.86,0,0,0,24.19.66a4,4,0,0,0-.54-.05h-7.3a4,4,0,0,0-.54.05A5.86,5.86,0,0,0,14.55,1,3.91,3.91,0,0,0,12.3,2.61l-.06.1h0a3.17,3.17,0,0,0-.36,1.48,275.47,275.47,0,0,0,0,31.44,3.87,3.87,0,0,0,1.51,2.7l0,0,.07.06,0,0a5.64,5.64,0,0,0,2.89,1l3.63,0,3.63,0a5.64,5.64,0,0,0,2.89-1l0,0,.07-.06,0,0a3.87,3.87,0,0,0,1.51-2.7,275.47,275.47,0,0,0,0-31.44A3.17,3.17,0,0,0,27.75,2.71Zm-2.9,13.93A14.3,14.3,0,0,0,20,16a14.3,14.3,0,0,0-4.85.64L13,11.76S14.7,10.28,20,10c5.3.24,7,1.72,7,1.72ZM25,23.17h2.3v8.67L25,28.67ZM15,18.62v3.22h-2.3V13.89Zm-2.3,4.55H15v5.5l-2.3,3.17Zm.1,10.57L15.41,30a18.92,18.92,0,0,0,4.59.6,18.92,18.92,0,0,0,4.59-.6l2.57,3.75C24.57,35,20,35,20,35S15.43,35,12.84,33.74Zm14.42-11.9H25V18.62l2.3-4.73Z"/><path class="cls-1" d="M6.22,33.38l3.63-5.25.45-4.56L3.54,33.66A1.82,1.82,0,0,0,6.22,33.38Z"/><path class="cls-1" d="M6.22,23.08l3.63-5.25.45-4.56L3.54,23.36A1.82,1.82,0,0,0,6.22,23.08Z"/><path class="cls-1" d="M30.15,28.13l3.63,5.25a1.82,1.82,0,0,0,2.68.28L29.7,23.57Z"/><path class="cls-1" d="M33.78,23.08a1.82,1.82,0,0,0,2.68.28L29.7,13.27l.45,4.56Z"/></svg>